<?xml version="1.0" encoding="UTF-8"?>
<!-- Created with Inkscape (http://www.inkscape.org/) -->
<svg width="595.57" height="132" version="1.1" viewBox="0 0 595.57 132" xml:space="preserve" xmlns="http://www.w3.org/2000/svg" xmlns:cc="http://creativecommons.org/ns#" xmlns:dc="http://purl.org/dc/elements/1.1/" xmlns:rdf="http://www.w3.org/1999/02/22-rdf-syntax-ns#"><metadata><rdf:RDF><cc:Work rdf:about=""><dc:format>image/svg+xml</dc:format><dc:type rdf:resource="http://purl.org/dc/dcmitype/StillImage"/><dc:title/></cc:Work></rdf:RDF></metadata><defs><clipPath id="clipPath18"><path d="m120.06 278.32c-20.016 7.558-42.318 1.263-42.318 1.263 8.527-1.529 13.077-4.953 13.077-4.953-19.693 0.377-26.253-11.383-26.253-11.383 6.104 2.177 11.972 0.361 11.972 0.361-24.763-12.519-34.135-38.969-36.779-48.448-1.618-5.803-5.511-10.724-10.839-13.536-0.845-0.446-1.38-0.668-1.38-0.668 4.03-4.758 10.687-5.503 10.687-5.503-2.569-6.209-1.247-19.835-0.94-22.644 0.04-0.367 0.073-0.731 0.084-1.099 0.314-10.754-7.293-22.622-7.293-22.622 7.735-2.334 16.731 4.124 16.731 4.124-6.359-37.037 14.244-51.509 14.244-51.509-0.082 10.377 3.077 14.659 3.077 14.659 6.505-48.643 55.073-66.354 55.073-66.354-10.776 16.679-10.087 30.521-10.087 30.521 9.833-32.119 38.691-47.324 38.691-47.324-7.817 12.711 1.388 26.354 1.388 26.354 6.202-10.329 12.856-10.543 12.856-10.543-3.031 13.015 9.178 17.103 9.178 17.103 1.63-4.244-0.15-14.636-0.15-14.636 37.326 24.243 45.257 64.484 45.257 64.484 2.163-4.24 2.23-12.754 2.23-12.754 21.139 18.793 12.37 50.921 12.37 50.921 8.823-5.253 17.058-3.591 17.058-3.591-2.352 3.058-3.979 6.408-5.105 9.568-1.86 5.223-2.606 10.781-2.308 16.317 0.881 16.403-1.735 20.609-1.735 20.609 9.036 1.402 11.131 5.676 11.131 5.676-3.414 1.447-6.014 3.867-7.873 6.168-1.98 2.45-3.414 5.289-4.352 8.296-8.323 26.65-26.794 40.84-26.794 40.84l6.392-0.748c-5.968 14.322-30.457 15.459-30.457 15.459 3.983 1.096 15.428 0.654 15.428 0.654-18.46 12.627-35.698 5.306-35.698 5.306 7.147 4.846 17.246 6.256 17.246 6.256-10.496 5.434-20.017 7.411-28.31 7.411-22.103 0-35.499-14.035-35.499-14.035"/></clipPath><linearGradient id="linearGradient32" x2="1" gradientTransform="matrix(0 259.15 259.15 0 138.75 33.2)" gradientUnits="userSpaceOnUse"><stop stop-color="#fa6017" offset="0"/><stop stop-color="#fa6017" offset=".2629"/><stop stop-color="#fa002d" offset=".99946"/><stop stop-color="#fa002d" offset="1"/></linearGradient><clipPath id="clipPath42"><path d="M 0,325.55 H 1224.327 V 0 H 0 Z"/></clipPath></defs><g transform="matrix(1.3333 0 0 -1.3333 -36.715 176.27)"><g transform="matrix(.38202 0 0 .38202 17.017 20.517)"><g clip-path="url(#clipPath18)"><path d="m120.06 278.32c-20.016 7.558-42.318 1.263-42.318 1.263 8.527-1.529 13.077-4.953 13.077-4.953-19.693 0.377-26.253-11.383-26.253-11.383 6.104 2.177 11.972 0.361 11.972 0.361-24.763-12.519-34.135-38.969-36.779-48.448-1.618-5.803-5.511-10.724-10.839-13.536-0.845-0.446-1.38-0.668-1.38-0.668 4.03-4.758 10.687-5.503 10.687-5.503-2.569-6.209-1.247-19.835-0.94-22.644 0.04-0.367 0.073-0.731 0.084-1.099 0.314-10.754-7.293-22.622-7.293-22.622 7.735-2.334 16.731 4.124 16.731 4.124-6.359-37.037 14.244-51.509 14.244-51.509-0.082 10.377 3.077 14.659 3.077 14.659 6.505-48.643 55.073-66.354 55.073-66.354-10.776 16.679-10.087 30.521-10.087 30.521 9.833-32.119 38.691-47.324 38.691-47.324-7.817 12.711 1.388 26.354 1.388 26.354 6.202-10.329 12.856-10.543 12.856-10.543-3.031 13.015 9.178 17.103 9.178 17.103 1.63-4.244-0.15-14.636-0.15-14.636 37.326 24.243 45.257 64.484 45.257 64.484 2.163-4.24 2.23-12.754 2.23-12.754 21.139 18.793 12.37 50.921 12.37 50.921 8.823-5.253 17.058-3.591 17.058-3.591-2.352 3.058-3.979 6.408-5.105 9.568-1.86 5.223-2.606 10.781-2.308 16.317 0.881 16.403-1.735 20.609-1.735 20.609 9.036 1.402 11.131 5.676 11.131 5.676-3.414 1.447-6.014 3.867-7.873 6.168-1.98 2.45-3.414 5.289-4.352 8.296-8.323 26.65-26.794 40.84-26.794 40.84l6.392-0.748c-5.968 14.322-30.457 15.459-30.457 15.459 3.983 1.096 15.428 0.654 15.428 0.654-18.46 12.627-35.698 5.306-35.698 5.306 7.147 4.846 17.246 6.256 17.246 6.256-10.496 5.434-20.017 7.411-28.31 7.411-22.103 0-35.499-14.035-35.499-14.035" fill="url(#linearGradient32)"/></g><g clip-path="url(#clipPath42)"><g transform="translate(75.039 241.62)"><path d="m0 0c-3.949-0.615-7.405-3.018-9.438-6.458-3.519-5.959-7.501-17.475 1.393-31.856 0 0-2.243 9.729 0.413 16.248 0 0 2.211-5.668 4.946-9.166 0 0 0.916 21.125 19.058 20.998 0 0-4.538 12.078-16.372 10.234" fill="#fff"/></g><g transform="translate(209.87 235.81)"><path d="m0 0c-2.01 3.283-5.375 5.543-9.187 6.076-11.422 1.595-15.608-10.105-15.608-10.105 17.467 0.399 18.67-19.929 18.67-19.929 2.581 3.41 4.624 8.901 4.624 8.901 2.656-6.236 0.645-15.639 0.645-15.639 8.345 13.983 4.335 25.012 0.856 30.696" fill="#fff"/></g><g transform="translate(163.16 114.1)"><path d="m0 0c-0.264 0.134-0.536 0.263-0.815 0.388l-17.817 6.841c-2.581 1.03-5.462 1.017-8.034-0.036l-15.767-6.452 0.151-0.038c-0.072-0.025-0.111-0.04-0.111-0.04-2.441-11.019 3.502-17.201 3.502-17.201l0.668 4.629c0.866-10.584 5.71-14.56 5.71-14.56-1.758 3.531-0.43 7.056-0.43 7.056 1.418-4.276 4.509-9.011 6.819-12.19 2.098-2.887 3.361-6.298 3.631-9.857 0.239-3.138 0.311-5.968 0.311-5.968 2.364 3.142 3.52 7.087 4.874 10.199 1.211 2.787 1.871 5.783 1.865 8.821-0.017 8.28 3.071 9.815 3.071 9.815-0.225-3.086 0.872-7.497 0.872-7.497 1.115 8.818 4.209 14.104 4.209 14.104 1.314-6.175 2.193-7.499 2.193-7.499-0.276 1.532-0.222 2.999-0.019 4.287 0.354 2.253 1.453 4.302 2.989 5.987 2.938 3.224 3.452 8.455 3.452 8.455-0.019 0.013-0.038 0.025-0.057 0.036l0.156 0.042z" fill="#fff"/></g><g transform="translate(109.19 163.76)"><path d="m0 0c-7.223 0.782-13.58 4.515-17.812 9.968-0.038 0.03-0.077 0.062-0.115 0.092-0.109 0.069-0.17 0.107-0.17 0.107 0.111-0.848 0.343-1.689 0.582-2.399 6e-3 -0.016 0.01-0.03 0.016-0.044 3e-3 -8e-3 5e-3 -0.015 7e-3 -0.022 0.043-0.127 0.086-0.249 0.129-0.365 0.097-0.275 0.204-0.545 0.321-0.811 0.061-0.148 0.116-0.272 0.159-0.368 5e-3 -6e-3 7e-3 -0.014 8e-3 -0.02 0.019-0.044 0.037-0.082 0.054-0.112 2e-3 -6e-3 4e-3 -0.01 8e-3 -0.016 0.022-0.051 0.039-0.08 0.039-0.08l4e-3 -5e-3c0.543-1.095 1.253-2.101 2.125-2.979l8.813-8.873z" fill="#fff"/></g><g transform="translate(177.38 144.61)"><path d="m0 0-8.596 19.625c-0.895-0.085-1.801-0.132-2.716-0.139-3.371-0.027-6.666 0.58-9.727 1.769-5e-3 2e-3 -0.014 6e-3 -0.02 8e-3l2e-3 -8e-3 5.27-15.763-19.213-11.457 0.093-11.742 17.169-6.53 8.014 3.583-12.534 1.796 16.737 2.028 2.388 4.08-21.146 2.542 23.537 1.537 1.591 4.075-20.316 1.192z" fill="#fff"/></g><g transform="translate(169.39 164.3)"><path d="m0 0 5.988-5.897 8.671 9.01c0.487 0.504 0.921 1.055 1.301 1.635 0.032 0.049 0.061 0.093 0.091 0.142 0.014 0.018 0.026 0.038 0.038 0.056 4e-3 6e-3 6e-3 0.012 0.01 0.016 6e-3 6e-3 8e-3 9e-3 0.01 0.015l0.179 0.303c0.132 0.22 0.254 0.444 0.364 0.673 0.054 0.109 0.103 0.214 0.153 0.318 0.047 0.104 0.094 0.204 0.138 0.307 0.043 0.101 0.085 0.2 0.124 0.299 0.079 0.195 0.148 0.387 0.217 0.577 0.031 0.099 0.067 0.199 0.098 0.298 0.03 0.091 0.059 0.184 0.084 0.276 0.208 0.678 0.32 1.246 0.382 1.644-0.858-1.118-1.826-2.168-2.898-3.134-4.002-3.605-9.221-5.871-14.95-6.538" fill="#fff"/></g><g transform="translate(87.254 209.15)"><path d="m0 0 5.67 2.213-1.864-4.066c0.817 0.234 1.636 0.438 2.459 0.622l0.407 0.406c4.032 4.048 8.867 5.708 12.622 6.362 1.848 0.282 3.643 0.332 5.289 0.345 7.315 0.058 14.684-3.617 19.883-9.767 0.939-1.11 2.127-1.991 3.472-2.542 9e-3 -4e-3 0.019-8e-3 0.028-0.012 0.01-4e-3 0.018-6e-3 0.026-0.01 2.25-0.915 4.768-0.896 7.003 0.055 0.064 0.027 0.132 0.056 0.198 0.084 7e-3 3e-3 0.013 6e-3 0.02 9e-3 1.062 0.451 1.982 1.187 2.678 2.108 2.116 2.801 4.553 5.209 7.146 7.046 3.973 2.819 8.175 4.265 12.489 4.299 0 0 10.261 0.416 18.573-7.73l0.634-0.092c0.781-0.144 1.578-0.31 2.353-0.52l-1.919 4.093 5.708-2.106-3.726 9.332c-0.426 1.071-1.402 1.829-2.546 1.972l-14.678 1.806 4.012 6.802-6.507 0.759 11.309 8.213s-7.607 3.19-26.224-5.08l8.043 10.352-10.049-4.703c-1.916-0.894-3.627-2.167-5.041-3.741l-6.18-6.886-6.288 6.788c-1.438 1.551-3.17 2.797-5.1 3.661l-10.122 4.543 8.206-10.224c-18.745 7.975-26.301 4.665-26.301 4.665l11.437-8.033-6.494-0.862 4.118-6.735-14.648-2.038c-1.141-0.16-2.106-0.926-2.516-2.003z" fill="#fff"/></g><g transform="translate(155.86 166.28)"><path d="m0 0c-2.774 1.103-5.377 2.691-7.629 4.718-1.984 1.786-3.67 3.811-4.993 6.031-1.311 2.201-2.283 4.594-2.867 7.131-0.01 0.042-0.021 0.084-0.027 0.126l-0.06 0.688c-0.083 0.621-0.614 1.365-1.24 1.36h-7e-3l-0.086-1e-3h-0.043c-0.604-5e-3 -1.132-0.682-1.246-1.274-1.02-5.269-4.044-10.25-7.987-13.945-1.422-1.306-3.719-3.12-6.868-4.642-0.136-0.056-0.259-0.123-0.399-0.177-3.342-1.553-7.551-2.737-12.576-2.572l-8.253-19.701 19.517-3.103-20.291-1.516 1.655-4.052 23.565-1.166-21.1-2.876 2.472-4.042 16.799-1.763-12.618-1.995 7.985-3.457 16.656 6.693-0.094 12.006-18.986 11.151 4.957 16.117c0.017 6e-3 0.033 0.016 0.05 0.022l0.083-10.553h33.782z" fill="#fff"/></g><g transform="translate(184.65 189.35)"><path d="m0 0c0-11.017-8.8-19.947-19.655-19.947s-19.654 8.93-19.654 19.947c0 11.016 8.799 19.947 19.654 19.947s19.655-8.931 19.655-19.947" fill="#fff"/></g><g transform="translate(178.24 189.29)"><path d="m0 0c-8.83-8.527-17.659-8.527-26.488 0 8.829 8.527 17.658 8.527 26.488 0" fill="#f9f8f7"/></g><g transform="translate(152.94 189.29)"><path d="m0 0c8.108-7.461 16.012-7.461 24.12 0-8.108 7.461-16.012 7.461-24.12 0m12.06-7.221c-4.613 0-9.227 2.212-13.808 6.637l-0.606 0.584 0.606 0.584c9.163 8.85 18.454 8.85 27.617 0l0.605-0.584-0.605-0.584c-4.582-4.425-9.195-6.637-13.809-6.637" fill="#3aa3f9"/></g><g transform="translate(169.63 189.29)"><path d="m0 0c0-2.558-2.074-4.632-4.632-4.632s-4.632 2.074-4.632 4.632 2.074 4.632 4.632 4.632 4.632-2.074 4.632-4.632" fill="#3aa3f9"/></g><g transform="translate(165 191.17)"><path d="m0 0c0-0.668-0.542-1.21-1.21-1.21-0.669 0-1.211 0.542-1.211 1.21s0.542 1.21 1.211 1.21c0.668 0 1.21-0.542 1.21-1.21" fill="#f9f8f7"/></g><g transform="translate(131.73 189.17)"><path d="m0 0c0-11.016-8.8-19.947-19.655-19.947-10.854 0-19.654 8.931-19.654 19.947 0 11.017 8.8 19.947 19.654 19.947 10.855 0 19.655-8.93 19.655-19.947" fill="#fff"/></g><g transform="translate(125.32 189.17)"><path d="m0 0c-8.829-8.527-17.659-8.527-26.488 0 8.829 8.527 17.659 8.527 26.488 0" fill="#f9f8f7"/></g><g transform="translate(100.01 189.17)"><path d="m0 0c8.108-7.461 16.013-7.461 24.12 0-8.107 7.461-16.012 7.461-24.12 0m12.06-7.221c-4.613 0-9.227 2.212-13.808 6.637l-0.605 0.584 0.605 0.584c9.163 8.85 18.454 8.85 27.617 0l0.605-0.584-0.605-0.584c-4.582-4.425-9.195-6.637-13.809-6.637" fill="#3aa3f9"/></g><g transform="translate(116.7 189.17)"><path d="m0 0c0-2.558-2.074-4.632-4.632-4.632s-4.632 2.074-4.632 4.632 2.074 4.632 4.632 4.632 4.632-2.074 4.632-4.632" fill="#3aa3f9"/></g><g transform="translate(112.07 191.06)"><path d="m0 0c0-0.668-0.542-1.21-1.21-1.21-0.669 0-1.211 0.542-1.211 1.21s0.542 1.21 1.211 1.21c0.668 0 1.21-0.542 1.21-1.21" fill="#f9f8f7"/></g><g transform="translate(619.32 130.03)"><path d="m0 0c-6.864 5.454-7.73 12.888-7.826 20.892-0.16 13.32 0.738 26.671-0.98 39.955-2.986 23.094-20.516 36.114-43.543 32.54-12.848-1.993-22.814-8.502-30.479-18.992-13.399 25.88-51.214 25.762-68.816 0.81-0.177 0.091-0.507 0.18-0.509 0.274-0.052 3.773 1e-3 7.549-0.118 11.319-0.186 5.902-1.885 7.322-7.832 6.179-8.239-1.581-16.122-4.344-23.569-8.193-6.511-3.366-6.908-7.439-1.23-12.281 3.622-3.088 6.528-6.481 6.53-11.5 4e-3 -15.523-0.014-31.046-0.127-46.567-0.039-5.262-2.14-9.658-6.377-12.914-2.886-2.216-4.835-4.924-3.533-8.692 1.307-3.784 4.942-3.747 7.999-3.794 11.142-0.17 22.29-0.105 33.436-7e-3 2.958 0.027 6.353 0.031 7.569 3.47 1.18 3.337-0.16 6.29-2.911 8.444-5.175 4.052-6.797 9.63-6.84 15.832-0.073 10.349-0.14 20.701 0.021 31.048 0.108 6.897 1.873 13.42 6.191 18.952 5.438 6.967 12.453 10.517 21.412 8.508 8.555-1.92 11.48-8.54 12.466-16.294 1.914-15.065 0.955-30.2 0.647-45.303-0.101-4.931-2.315-9.169-6.32-12.353-2.785-2.212-5.007-4.969-3.412-8.725 1.488-3.506 5.05-3.582 8.215-3.613 10.947-0.105 21.894-0.103 32.841-0.012 3.14 0.027 6.727-0.121 8.052 3.663 1.311 3.742-0.662 6.525-3.5 8.768-4.005 3.165-6.068 7.332-6.189 12.374-0.224 9.342-0.339 18.686-0.446 28.03-0.066 5.778 0.08 11.553 1.88 17.123 3.708 11.476 11.881 17.621 22.329 16.85 9.78-0.723 15.851-7.581 17.53-20.103 1.647-12.286 0.576-24.647 0.761-36.973 0.108-7.23-1.406-13.811-7.739-18.435-2.459-1.795-3.396-4.454-2.428-7.43 0.953-2.93 3.59-3.717 6.216-3.746 12.137-0.138 24.276-0.169 36.414-0.069 2.566 0.022 5.334 0.546 6.429 3.447 1.121 2.969 0.071 5.702-2.214 7.518" fill="#26262d"/></g><g transform="translate(1041.5 92.867)"><path d="m0 0c-1.359-1.121-2.855-2.26-4.471-2.837-14.942-5.382-29.934-5.427-44.719 0.341-5.184 2.024-8.598 6.089-7.423 12.104 1.21 6.17 6.019 7.936 11.629 8.019 6.34 0.116 12.68 0.029 19.02 0.026 6.544-3e-3 13.088 1.202 19.632 1.046 4.606-0.121 8.753-1.499 10.229-6.497 1.444-4.845 0.014-9.008-3.897-12.202m-44.793 114.14c6.751 7.068 18.31 6.842 24.765-1.098 8.206-10.048 10.563-21.811 6.768-34.201-4-13.069-18.873-16.208-28.575-6.464-5.386 5.39-8.17 13.159-8.692 24.972-0.049 5.643 0.99 11.83 5.734 16.791m54.601-71.359c-4.538 1.056-9.093 1.16-13.649 0.923-10.724-0.574-21.433-1.351-32.159-1.959-5.592-0.32-11.184-0.029-16.418 2.183-4.215 1.786-6.016 5.051-4.671 9.656 1.345 4.623 4.354 4.366 8.398 3.481 13.104-2.844 26.175-2.356 38.721 2.653 14.943 5.977 24.806 16.376 26.325 33.066 0.99 10.929-3.085 20.16-11.173 27.982 5.065 1.46 9.503 2.631 13.243 5.366 4.251 3.108 7.056 7.068 6.48 12.592-0.372 3.671-2.444 6.358-6.013 7.396-5.473 1.6-9.043-1.56-12.257-5.383-6.905-8.241-15.337-11.807-26.367-10.324-11.609 1.568-22.998-0.398-33.708-5.442-8.092-3.822-14.859-9.258-19.553-16.939-9.661-15.837-6.998-29.997 8.294-44.944-20.301-14.185-21.275-25.385-3.314-39.075-0.645-0.492-1.241-1.002-1.904-1.409-14.332-8.936-14.423-23.86-0.183-32.993 3.874-2.5 8.073-4.337 12.508-5.461 20.581-5.209 41.03-4.741 61.072 2.356 9.961 3.514 18.615 9.068 23.684 18.874 8.472 16.399 0.592 33.229-17.356 37.401" fill="#26262d"/></g><g transform="translate(800.94 221.35)"><path d="m0 0c-6.56 0.158-13.125 0.108-19.688 0.11-2.845 1e-3 -5.847-0.151-7.208-3.115-1.444-3.147 0.038-5.841 2.426-7.942 3.613-3.18 4.52-7.308 2.88-11.398-6.21-15.486-12.786-30.823-19.634-47.193-0.923 2.04-1.365 2.896-1.708 3.79-7.823 20.389-15.767 40.733-23.354 61.209-1.851 4.994-4.878 6.217-9.624 5.497-5.624-0.851-9.185-3.619-11.165-9.222-4.894-13.846-10.244-27.53-15.437-41.27-2.366-6.261-4.794-12.5-7.655-19.95-6.384 16.023-12.378 30.708-18.045 45.518-1.617 4.224-1.505 8.587 2.457 12.006 2.412 2.083 5.121 4.393 3.806 8.054-1.42 3.955-5.271 3.868-8.58 3.91-11.536 0.148-23.075 0.127-34.612 0.054-3.146-0.02-6.711 0.13-8.143-3.554-1.492-3.837 0.8-6.477 3.649-8.595 5.965-4.434 9.536-10.464 12.241-17.245 8.976-22.499 18.081-44.946 27.155-67.407 1.107-2.743 2-5.622 5.449-6.536 6.436-1.706 16.759 3.282 19.2 9.512 2.246 5.73 4.352 11.515 6.522 17.274 4.664 12.374 9.33 24.746 14.552 38.6 7.745-20.801 14.888-39.962 22.003-59.134 1.055-2.84 1.992-5.489 5.669-6.115 7.728-1.315 15.814 2.704 18.906 9.816 7.917 18.208 15.834 36.417 23.675 54.659 4.474 10.408 8.278 21.189 18.293 28.006 2.352 1.6 2.995 4.189 2.129 6.92-0.937 2.954-3.525 3.678-6.159 3.741" fill="#26262d"/></g><g transform="translate(940.82 137.13)"><path d="m0 0c-6.03 3.239-8.313 8.173-8.285 14.63 0.011 2.387-3e-3 4.775 0.011 7.163 0.1 18.903 0.244 37.806 0.292 56.709 0.018 7.583-1.749 8.982-8.917 7.172-8.882-2.242-17.474-5.349-25.624-9.535-6.005-3.085-6.409-6.442-1.338-10.921 3.728-3.294 6.566-6.974 6.6-12.135 0.064-9.549 0.344-19.117-0.136-28.644-0.616-12.215-8.434-22.481-18.485-25.353-9.098-2.601-16.836 1.458-19.736 10.411-1.736 5.359-2.091 10.905-2.072 16.496 0.06 17.709 0.164 35.418 0.125 53.128-0.016 7.287-1.63 8.478-8.774 6.611-8.855-2.315-17.484-5.344-25.64-9.522-6.11-3.128-6.574-6.422-1.398-10.834 4.934-4.206 7-9.275 6.874-15.692-0.203-10.343-0.354-20.706 0.054-31.038 1.211-30.668 25.966-47.017 52.518-34.927 6.609 3.01 11.967 7.629 17.631 13.866 0.161-3.245 0.161-5.22 0.374-7.171 0.956-8.755 4.578-11.657 13.19-9.895 8.204 1.678 16.158 4.357 23.15 9.115 5.264 3.583 5.17 7.366-0.414 10.366" fill="#26262d"/></g><g transform="translate(412.21 136.87)"><path d="m0 0c-7.08 3.555-9.354 9.187-9.014 16.609 0.209 4.568-0.022 9.155 4e-3 13.732 0.089 16.123 0.235 32.245 0.293 48.368 0.029 7.792-1.96 9.38-9.319 7.416-8.268-2.208-16.281-5.163-23.997-8.868-7.559-3.631-8.008-6.546-1.892-12.179 3.509-3.231 5.894-6.965 5.897-11.881 5e-3 -9.354 0.35-18.73-0.166-28.056-0.545-9.82-4.744-18.047-13.343-23.412-10.543-6.577-21.889-2.125-25.285 9.781-1.489 5.219-1.689 10.589-1.669 15.969 0.066 17.318 0.212 34.635 0.197 51.952-7e-3 7.297-1.629 8.496-8.669 6.769-8.912-2.187-17.471-5.419-25.687-9.466-6.204-3.055-6.81-6.461-1.716-10.754 5.16-4.348 7.207-9.578 7.074-16.215-0.211-10.544-0.355-21.115 0.143-31.643 1.094-23.151 14.307-37.059 34.92-37.496 14.245-0.303 25.126 6.248 34.975 17.285 0.362-3.693 0.487-6.424 0.923-9.103 0.724-4.435 2.476-8.374 7.786-8.117 10.77 0.524 20.654 4.108 29.335 10.413 4.05 2.941 3.693 6.646-0.79 8.896" fill="#26262d"/></g><g transform="translate(1125.1 133.27)"><path d="m0 0c-7.852 2.723-12.541 8.605-13.081 17.376-0.54 8.754 3.491 15.67 11.192 19.338 5.202 2.48 10.726 2.766 16.319 2.492 12.645-0.617 15.992-4.069 16.157-16.561 3.647-17.407-17.96-27.001-30.587-22.645m67.888 1.842c-8.278 2.518-9.45 4.066-9.531 12.565-0.097 11.728 0.163 23.473-0.105 35.184-0.3 13.7-4.12 25.939-16.32 33.95-18.778 12.331-51.788 7.023-65.953-10.597-1.821-2.26-4.575-4.74-2.265-7.852 2.549-3.434 5.474-0.733 7.922 0.558 8.686 4.535 17.747 6.775 27.571 5.717 12.696-1.382 21.259-11.567 19.996-23.838-17.676 4.155-35.08 4.467-51.555-4.466-12.376-6.709-18.72-18.588-16.89-31.541 1.983-13.956 10.547-22.577 23.718-26.083 17.896-4.766 33.824-0.676 47.223 12.848 0.561-0.782 0.901-1.088 1.002-1.445 2.207-7.411 6.897-12.02 14.834-12.532 9.076-0.582 16.913 2.185 22.372 9.797 2.194 3.042 3.096 6.169-2.019 7.735" fill="#26262d"/></g></g></g></g></svg>
